<svg xmlns="http://www.w3.org/2000/svg" viewBox="0 0 750 500"><g id="freepik--background-simple--inject-12"><path d="M706,136S667,46,544,27s-177.89,15-213,61S271,78,168,74c-36.5-1.42-77.72,5.12-102.79,34.33-19.3,22.49-26.82,57.33-8.5,82.7,16.23,22.48,53.37,56.32,35.29,87-23,39-53,99-21,144s66,64,165,45,134-58,182-34,147,61,206,47,40-86,36-111,61-51,63-118S717,161,706,136Z" style="fill:#92E3A9"></path><path d="M706,136S667,46,544,27s-177.89,15-213,61S271,78,168,74c-36.5-1.42-77.72,5.12-102.79,34.33-19.3,22.49-26.82,57.33-8.5,82.7,16.23,22.48,53.37,56.32,35.29,87-23,39-53,99-21,144s66,64,165,45,134-58,182-34,147,61,206,47,40-86,36-111,61-51,63-118S717,161,706,136Z" style="fill:#fff;opacity:0.7000000000000001"></path></g><g id="freepik--action-figure-2--inject-12"><g style="opacity:0.30000000000000004"><path d="M544.59,188.56l12.76-12.75,1.63-.33-8.83,10.14,2.29,2.29,17.34-19,2.62.65,3.92-4.58s4.58,6.22,4.58,11.12h3.27s-.65-9.48-6.54-16l2.62-2.29,3.27,2.94,9.48-8.18,5.56-4.58a28.81,28.81,0,0,0,6.54-2.94,22.72,22.72,0,0,0,2.8-2.42c1.64-1.67,3.09-3.65,3.09-5.1v-4.26s3,3.6,2,6.55-6.54,13.08-6.54,13.08-2.29,7.2-2.29,12.1-3.27,11.45-1.63,14.39a10.7,10.7,0,0,0,3.27,3.93l1.3,26.48v12.76s-5.24,5.89-6.87,6.54-5.56,1-5.56,3.27v1.89h14.89l2.12-.91,4.25-1.3s.65-1,.65-4.58-.33-6.55-.33-7.53-.65-7.85-.65-7.85a38.12,38.12,0,0,0,1-8.17c0-4.26,1.65-22.56,1.65-22.56l4.58-10.14,1.31-2h2.29s3.27,8.18,4.9,11.13,7.2,18.31,7.2,18.31,1.31,10.14,2.94,13.09,3.6,10.46,3.6,10.46l2.62,10.47a9.29,9.29,0,0,0-.12,1.55h10.55c-1.36-4.54-6-12.34-6.84-14.63-1-2.62-2-18.32-3.59-21.26a17.19,17.19,0,0,1-2-4.91s-.32-21.92-2.29-25.19-6.21-11.12-6.21-11.12,2.62-2.94,2.62-5.89,1-3.92,0-4.9a18.56,18.56,0,0,1-2.29-3.6l-.33-1.64,2.62-1.3,1.63-1.31,7.52,17.33,4.58-2.94-3.59-10.14s2.61-8.18,2.61-9.81a82.3,82.3,0,0,0-1-9.82c-.33-1-1.63-4.25-1.63-4.25l-1.31-4.25v-3.27l1-1.64,1.63-2.29v-2.61l16-15-1.63-3.27-18,16-5.56-5.89h-2l3.27,4.91-7.19,2-1.64-1.31-1.31.33,2.62,4.9-2.29,1.64-2.94-2.29s1.31-6.87.65-11.45-7.52-4.58-8.83-3.6l-9.16-13.41L611,79.64l9.16,14.07S617.21,95,617.21,98s.32,7.52.32,7.52-7.85,4.58-10.46,7.85-4.58,10.14-4.58,10.14a52.54,52.54,0,0,0-.33,5.89c0,3.27-1,4.9-1,8.83,0,0-2.62-.65-6.54,2l-4.58-2.94-11.12,12.43h-6.22l3.93-4.58-1.31-1-11.78,12.75,2.29,2,1.64-2.29,1.63,2.61L558,168.94l-3.6-.66,2.29,3.93-14.06,14.72Z" style="fill:none;stroke:#000;stroke-linecap:round;stroke-linejoin:round"></path><rect x="538.86" y="63.86" width="140.87" height="170.69" style="fill:none;stroke:#000;stroke-linecap:round;stroke-linejoin:round"></rect><rect x="533.6" y="234.61" width="151.4" height="16.09" style="fill:none;stroke:#000;stroke-linecap:round;stroke-linejoin:round"></rect><rect x="538.33" y="251" width="141.33" height="204.67" style="fill:none;stroke:#000;stroke-linecap:round;stroke-linejoin:round"></rect></g></g><g id="freepik--action-figure-1--inject-12"><g style="opacity:0.30000000000000004"><rect x="315.86" y="63.86" width="140.87" height="170.69" style="fill:none;stroke:#000;stroke-linecap:round;stroke-linejoin:round"></rect><rect x="310.6" y="234.61" width="151.4" height="16.09" style="fill:none;stroke:#000;stroke-linecap:round;stroke-linejoin:round"></rect><rect x="315.33" y="251" width="141.33" height="204.67" style="fill:none;stroke:#000;stroke-linecap:round;stroke-linejoin:round"></rect><path d="M347,161.51c.73.24,2.93,2.93,3.91,2.93a1,1,0,0,0,.49-2,7.23,7.23,0,0,1-1.71-2.19l1.71-5.38,2.19.49s2.2,2.93,2.93,1.47-.48-2.45-1-3.42-1.47-3.42-1.47-3.42,8.31-16.61,8.79-18.32,4.89-10.5,4.89-10.5l1,9.28s-3.91,8.06-2.2,10,1.71,3.18,1.71,3.18-2.45,2.44-2.45,3.42,1.23,1,1.23,1-3.91,8.8-4.64,15.63-4.4,33.71-4.4,35.91,1.95,5.86,2.69,9,2.19,8.8,2.19,9.77-3.42,1.71-1.46,3.67a9.72,9.72,0,0,1,2.2,2.68,59.33,59.33,0,0,1-5.38,5.13c-1.71,1.22-4.39,1.47-3.66,3.66a3.43,3.43,0,0,0,.31.67H364a11.47,11.47,0,0,1,2.58-1.4,4.83,4.83,0,0,0,3.91-4.15c.24-2.93,0-16.12.48-16.85s2.93-9.28,2.93-9.28a7.7,7.7,0,0,1,2.93-.25c1.23.25,6.84.25,6.84.25l.25-26.38,2.2,3.18,3.42,41.51s2.93-1.7,6.34-3.41a27.78,27.78,0,0,0,5.38-3.42s2,7.81,2.44,10.74,1,6.6,2.2,7.82a8,8,0,0,0,3.36,1.64h11.35a3.3,3.3,0,0,0-.79-1.64c-2.2-2.69-5.37-5.86-6.35-8.55s-3.66-12.7-3.66-12.7a7.57,7.57,0,0,0,1.71-2,12.44,12.44,0,0,0,.73-2.94l3.17-2.68s3.91,10,3.91,7.33S406.09,162,406.09,162a58.85,58.85,0,0,0-2.44-7.33c-1.22-2.69-1.22-2.44-1.95-3.91s-1.22-2.2-1.22-2.2l.48-4.15s0-10.26-1-12-3.42-1-3.42-1v-3.42l2.2-6.6,3.9,8.31s.49,3.66.74,4.88.48,9,1.46,11.48,4.89,11.72,4.89,11.72-2.69,4.89-1.23,5.62,2.94,1.71,4.16,1.71,4.39.24,4.39-1.95-.24-5.13-.24-5.13a7.12,7.12,0,0,0,.73-3.42c0-2.2-4.39-17.59-5.13-20.27s-1.22-5.62-1.46-6.6-3.67-9-3.67-9,.25-4.64-.48-7.09-5.13-6.35-7.33-7.57a25.43,25.43,0,0,0-4.89-2l-2.93-3.42.25-1.95s1.95-12.22-.25-16.12-6.84-5.86-10.25-2.69-5.13,17.58-5.13,17.58-6.84,2.69-9.28,6.11a41.83,41.83,0,0,0-2.93,4.4s-2.45,3.42-2.69,6.59a13,13,0,0,1-2.2,5.86s-2.93,6.84-4.15,9.77a65,65,0,0,0-3.42,9.53c-.49,2.44-3.66,11-3.66,12.94s-.74,5.62-.74,7.82S346.26,161.26,347,161.51Z" style="fill:none;stroke:#000;stroke-linecap:round;stroke-linejoin:round"></path></g></g><g id="freepik--Poster--inject-12"><g style="opacity:0.30000000000000004"><polygon points="266.83 318.87 192.79 257.18 116.7 318.87 116.7 31.98 266.83 31.98 266.83 318.87" style="fill:none;stroke:#000;stroke-linecap:round;stroke-linejoin:round"></polygon><path d="M140.33,51v3.47h-4.27v-3.7c0-3.64-1.45-5.84-4.75-5.84s-4.74,2.2-4.74,5.84V72.11c0,3.64,1.51,5.84,4.74,5.84s4.75-2.2,4.75-5.84V64h-4.17V60h8.44V71.88c0,6.13-2.89,10.18-9.13,10.18s-9.08-4-9.08-10.18V51c0-6.13,2.89-10.17,9.08-10.17S140.33,44.82,140.33,51Z" style="fill:none;stroke:#000;stroke-linecap:round;stroke-linejoin:round"></path><path d="M159,59.1v4h-9.89v14.4h12.14v4.1H144.61V41.18h16.65v4.1H149.12V59.1Z" style="fill:none;stroke:#000;stroke-linecap:round;stroke-linejoin:round"></path><path d="M179.82,59.1v4h-9.89v14.4h12.15v4.1H165.42V41.18h16.66v4.1H169.93V59.1Z" style="fill:none;stroke:#000;stroke-linecap:round;stroke-linejoin:round"></path><path d="M193.12,64.08l-2.37,4V81.65h-4.51V41.18h4.51V60.72L201.5,41.18h4.57L195.83,59.62l10.58,22h-4.62Z" style="fill:none;stroke:#000;stroke-linecap:round;stroke-linejoin:round"></path><path d="M246.39,59h-3.65V54.71h3.88c3.64,0,5.84-1.45,5.84-4.74s-2.2-4.74-5.84-4.74H225.23c-3.65,0-5.84,1.5-5.84,4.74s2.19,4.74,5.84,4.74h5.26V59h-5c-6.13,0-10.18-2.89-10.18-9.14s4.05-9.07,10.18-9.07h20.93c6.12,0,10.17,2.89,10.17,9.07S252.51,59,246.39,59Z" style="fill:none;stroke:#000;stroke-linecap:round;stroke-linejoin:round"></path><path d="M246.39,62.74c6.18,0,10.17,3.07,10.17,9.26s-4,9.3-10.17,9.3H225.46c-6.13,0-10.18-3.06-10.18-9.3s4.05-9.26,10.18-9.26ZM225.23,67.2c-3.71,0-5.84,1.56-5.84,4.8s2.13,4.79,5.84,4.79h21.39c3.64,0,5.84-1.5,5.84-4.79s-2.2-4.8-5.84-4.8Z" style="fill:none;stroke:#000;stroke-linecap:round;stroke-linejoin:round"></path><path d="M215.69,89.57v-4h40.47v5.73l-29.26,9.36h29.26v4H215.69V99.92l32.72-10.35Z" style="fill:none;stroke:#000;stroke-linecap:round;stroke-linejoin:round"></path><path d="M256.16,112.64,221,119.23l35.21,6.53v4.17l-40.47-7.58V115.7l40.47-7.63Z" style="fill:none;stroke:#000;stroke-linecap:round;stroke-linejoin:round"></path><path d="M238.23,147.79h-4V137.9h-14.4V150h-4.1V133.39h40.47V150h-4.11V137.9H238.23Z" style="fill:none;stroke:#000;stroke-linecap:round;stroke-linejoin:round"></path><path d="M215.69,158.2v-4h40.47v5.72l-29.26,9.37h29.26v4H215.69v-4.68l32.72-10.35Z" style="fill:none;stroke:#000;stroke-linecap:round;stroke-linejoin:round"></path><path d="M215.69,183.69h36.36v-7.46h4.11V195.6h-4.11v-7.46H215.69Z" style="fill:none;stroke:#000;stroke-linecap:round;stroke-linejoin:round"></path><path d="M256.16,203.18H215.69v-4.51h40.47Z" style="fill:none;stroke:#000;stroke-linecap:round;stroke-linejoin:round"></path><path d="M246.39,207.45c6.18,0,10.17,3.07,10.17,9.25s-4,9.31-10.17,9.31H225.46c-6.13,0-10.18-3.06-10.18-9.31s4.05-9.25,10.18-9.25Zm-21.16,4.45c-3.71,0-5.84,1.57-5.84,4.8s2.13,4.8,5.84,4.8h21.39c3.64,0,5.84-1.5,5.84-4.8s-2.2-4.8-5.84-4.8Z" style="fill:none;stroke:#000;stroke-linecap:round;stroke-linejoin:round"></path><path d="M215.69,234.28v-4.05h40.47V236l-29.26,9.36h29.26v4H215.69v-4.68l32.72-10.35Z" style="fill:none;stroke:#000;stroke-linecap:round;stroke-linejoin:round"></path><polygon points="126.15 91.7 126.15 160.38 203.26 91.7 126.15 91.7" style="fill:none;stroke:#000;stroke-linecap:round;stroke-linejoin:round"></polygon><polygon points="203.26 111.21 155.66 157.55 203.26 145.19 203.26 111.21" style="fill:none;stroke:#000;stroke-linecap:round;stroke-linejoin:round"></polygon><polygon points="203.26 183.45 131.53 162.77 203.26 224.52 203.26 183.45" style="fill:none;stroke:#000;stroke-linecap:round;stroke-linejoin:round"></polygon><polygon points="126.8 188.2 126.8 274.27 184.83 228.63 126.8 188.2" style="fill:none;stroke:#000;stroke-linecap:round;stroke-linejoin:round"></polygon></g></g><g id="freepik--character-4--inject-12"><path d="M601.5,288.8s3.66,31.3-.66,50.62-6.67,39.29-6.67,39.29,3.34,8.66-.33,21-8.32,36.63-8.32,36.63a32.47,32.47,0,0,0,3,5.67c1.34,1.66,10.66.33,12.33,4.66a15.94,15.94,0,0,1,.33,9h-33.3a36.35,36.35,0,0,1-1.34-9.66c0-5.33,3.67-13,3.67-16.32s-2-35-2-46.62-5-52.28-5-52.28l-5.32-.34-16,36.64s-23,67.6-24.64,71.59-2.67,14.66-6,15.66-11-2.67-11-2.67l-2-3a46.88,46.88,0,0,1-5,.66c-1.33,0-14.65-6-17.65-8s0-5,1.67-6.66,5.32-2.67,9.32-1,17.32,2,17.32,2,3.44-38.14,3.44-41.14,5.88-29.13,8.21-33.13,2-55.28,18.32-77.92Z" style="fill:#92E3A9;stroke:#263238;stroke-linecap:round;stroke-linejoin:round"></path><path d="M601.5,288.8l-13.65-1.08v41.21L564.9,343l.36,5.73,22.59-7.53v25.53l-20.74-.25c.56,6.09,1,11.61,1.07,15.24H595a21.06,21.06,0,0,0-.79-3s2.34-20,6.67-39.29S601.5,288.8,601.5,288.8Z" style="fill:#263238;stroke:#263238;stroke-linecap:round;stroke-linejoin:round"></path><path d="M546.41,284.45l-12.51-1c-16.32,22.64-16,73.93-18.32,77.92a25.42,25.42,0,0,0-1.7,5.61l24.5,10.37,3.51-10.31,1.41-3.23-19.62-7.61,8.36-26.4,19.6,15,2.15-5-18.35-20.68Z" style="fill:#263238;stroke:#263238;stroke-linecap:round;stroke-linejoin:round"></path><path d="M603.16,276.14l-1,14.65s-11.53,6.13-37.51,2.47-30.76-9.79-30.76-9.79l4.33-16.32S565.86,278.8,603.16,276.14Z" style="fill:#263238;stroke:#263238;stroke-linecap:round;stroke-linejoin:round"></path><path d="M560.25,284.45c-.26,2.41,3.72,4.8,8.89,5.35s9.55-1,9.81-3.37-3.72-4.81-8.89-5.36S560.5,282,560.25,284.45Z" style="fill:#fff;stroke:#263238;stroke-linecap:round;stroke-linejoin:round"></path><path d="M492.94,181.23c2,2.66,13.32,7.66,13.32,7.66s6.33,58.61,11.65,61.61,20.65-9.66,20.65-9.66-1.66,20.32-1,25,.33,7,7.65,9,35.64,6.66,45,6,10.32-.67,13-4.66,1.67-29.31,1.67-29.31,16.32,18.65,21,21,9.33-2.33,14-9.32,9.33-38,9.33-38,7.65-.67,12.64-4.67,7.67-11,7.67-14-8.33,4-9.33,4-7,3.33-7,3.33.33-1.32.66-2.33,1-1.66,3-3.33,1-4.32-.67-4a35,35,0,0,0-10,4c-4.67,2.66-5.33,11-5.33,11l-14.66,26-7-18s0-.45,0-1.28a56.45,56.45,0,0,0-2.61-13c-1.82-5.68-13.4-9-20.58-10.59l-2-.41c-2.28-.45-3.77-.66-3.77-.66l.66-11.32-17-3.67-3.66,10.33h-2a21.72,21.72,0,0,0-2.38-1.2c-.46-.21-1-.43-1.56-.65-3.94-1.48-10.32-3-16.71-.48-10.32,4-11.32,19.31-11.32,19.31l-.41.53-8.58,10.8-11.32-29.65s1.33-6,2-9-2.32-6-4.66-7.65-5-2.67-6.32-4.67-5.34-1-4.67,1,3.72,4.75,4,5c-.4-.17-9.32-5.48-7.64-4.64,1.33.66-3.67-2-4.66-3.33s-2.34-1.67-4.33,0S490.94,178.57,492.94,181.23Z" style="fill:#92E3A9;stroke:#263238;stroke-linecap:round;stroke-linejoin:round"></path><polygon points="596.38 229.45 585.48 236.76 593.87 246.86 580.99 244.33 579.79 257.39 572.47 246.5 562.38 254.88 564.91 242.01 551.85 240.8 562.74 233.49 554.35 223.4 567.23 225.93 568.44 212.86 575.75 223.75 585.84 215.37 583.31 228.24 596.38 229.45" style="fill:#263238;stroke:#263238;stroke-linecap:round;stroke-linejoin:round"></polygon><path d="M589.56,207.57s3.61,14.93,3.61,25.23" style="fill:none;stroke:#263238;stroke-linecap:round;stroke-linejoin:round"></path><path d="M591,273a16,16,0,0,1-3.52,5.15" style="fill:none;stroke:#263238;stroke-linecap:round;stroke-linejoin:round"></path><path d="M594.71,259.05a56.9,56.9,0,0,1-2.43,10.75" style="fill:none;stroke:#263238;stroke-linecap:round;stroke-linejoin:round"></path><path d="M555.49,223.28c-.37,1.41-.69,2.87-.94,4.37" style="fill:none;stroke:#263238;stroke-linecap:round;stroke-linejoin:round"></path><path d="M566.91,201.39a57.62,57.62,0,0,0-10.18,17.88" style="fill:none;stroke:#263238;stroke-linecap:round;stroke-linejoin:round"></path><path d="M552,252.88a29.57,29.57,0,0,0,2.57,19.56" style="fill:none;stroke:#263238;stroke-linecap:round;stroke-linejoin:round"></path><line x1="568.02" y1="321.45" x2="564.85" y2="324.95" style="fill:none;stroke:#263238;stroke-linecap:round;stroke-linejoin:round"></line><line x1="583.9" y1="303.85" x2="572.42" y2="316.57" style="fill:none;stroke:#263238;stroke-linecap:round;stroke-linejoin:round"></line><line x1="547.34" y1="295.61" x2="552.49" y2="313.11" style="fill:none;stroke:#263238;stroke-linecap:round;stroke-linejoin:round"></line><line x1="527.24" y1="220.2" x2="530.44" y2="230.17" style="fill:#263238;stroke:#263238;stroke-linecap:round;stroke-linejoin:round"></line><line x1="626.14" y1="240.51" x2="620.07" y2="248.2" style="fill:#263238;stroke:#263238;stroke-linecap:round;stroke-linejoin:round"></line><path d="M595.91,197.62c9.56,13,9.26,38.89,9.26,38.89l13.93-15.26c-.15-2.19,1.11-6.36-.58-12.46C615.58,198.2,603.09,199.18,595.91,197.62Z" style="fill:#263238;stroke:#263238;stroke-linecap:round;stroke-linejoin:round"></path><path d="M568.2,191.89a21.72,21.72,0,0,0-2.38-1.2c.74,4.93,3.36,15.73,12,17.52,9.21,1.9,14.46-7.45,16.09-11-2.28-.45-3.77-.66-3.77-.66l.66-11.32-17-3.67-3.66,10.33Z" style="fill:#263238;stroke:#263238;stroke-linecap:round;stroke-linejoin:round"></path><path d="M535.82,209.4l5.08,13.79L564.26,190c-3.94-1.48-10.32-3-16.71-.48-10.32,4-11.32,19.31-11.32,19.31Z" style="fill:#263238;stroke:#263238;stroke-linecap:round;stroke-linejoin:round"></path><path d="M592.18,143.27s12.65,2.66,12.32,14.32-7,25-11,29.3-11.32,4-16.65,1-9-11.65-7.33-20.65.33-17.65,7.33-22.31S592.18,143.27,592.18,143.27Z" style="fill:#fff;stroke:#263238;stroke-linecap:round;stroke-linejoin:round"></path><path d="M581.92,172.7a4.94,4.94,0,0,1-3.66.07c-2.31-.69-5-3.15-4.79-.69s1.16,5.3,3.78,6.86a3.71,3.71,0,0,0,4.48-.18l1.51-.81s-.9,2.56,3.61,2.6,6.4-4,6.28-5.31S587.74,176.49,581.92,172.7Z" style="fill:#263238;stroke:#263238;stroke-linecap:round;stroke-linejoin:round"></path><path d="M576.86,144.93c7-4.66,15.32-1.66,15.32-1.66s12.65,2.66,12.32,14.32c-.22,7.55-3.09,15.79-6.18,21.84-3-3.67-11.12-12.92-15.13-11.85a102.66,102.66,0,0,0-14.05,4.76,24,24,0,0,1,.39-5.1C571.2,158.25,569.86,149.59,576.86,144.93Z" style="fill:#263238;stroke:#263238;stroke-linecap:round;stroke-linejoin:round"></path><path d="M571.53,161.25c0,2.94,2.76,5.33,6.16,5.33s6.16-2.39,6.16-5.33-2.76-5.33-6.16-5.33S571.53,158.31,571.53,161.25Z" style="fill:#fff;stroke:#263238;stroke-linecap:round;stroke-linejoin:round"></path><path d="M588.55,163.89c-.33,2.92,2.15,5.6,5.53,6s6.39-1.69,6.72-4.61-2.15-5.6-5.53-6S588.88,161,588.55,163.89Z" style="fill:#fff;stroke:#263238;stroke-linecap:round;stroke-linejoin:round"></path><path d="M592.52,164.54c-.16,1.18.37,2.23,1.19,2.35s1.62-.75,1.78-1.93-.36-2.24-1.18-2.36S592.69,163.35,592.52,164.54Z" style="fill:#263238"></path><path d="M577.37,161.71c-.17,1.18.36,2.23,1.18,2.35s1.62-.75,1.79-1.93-.36-2.24-1.18-2.36S577.54,160.52,577.37,161.71Z" style="fill:#263238"></path><polyline points="583.18 167.58 582.19 172.57 586.18 174.24" style="fill:none;stroke:#263238;stroke-linecap:round;stroke-linejoin:round"></polyline><path d="M602.5,167.91s5.33.67,2.66,5-6.32,5-6.32,5Z" style="fill:#fff;stroke:#263238;stroke-linecap:round;stroke-linejoin:round"></path><path d="M570.2,161.92s-3-4.33-4.33-.34,3.66,9,3.66,9Z" style="fill:#fff;stroke:#263238;stroke-linecap:round;stroke-linejoin:round"></path><polygon points="538.56 240.84 538.23 225.52 534.32 243.21 538.56 240.84" style="fill:#263238;stroke:#263238;stroke-linecap:round;stroke-linejoin:round"></polygon><polygon points="605.83 247.17 607.5 238.51 608.41 251.26 605.83 247.17" style="fill:#263238;stroke:#263238;stroke-linecap:round;stroke-linejoin:round"></polygon><path d="M493.94,167.25c1,1.32,6,4,4.66,3.33-1.68-.84,7.24,4.47,7.64,4.64-.26-.23-3.34-3.06-4-5s3.33-3,4.67-1,4,3,6.32,4.67,5.33,4.66,4.66,7.65-2,9-2,9l8.3,21.75c-2.37,1.63-6.81,3.73-14.41,4.42-2.1-14.36-3.55-27.83-3.55-27.83s-11.33-5-13.32-7.66-5.33-12.32-3.33-14S492.94,165.91,493.94,167.25Z" style="fill:#263238;stroke:#263238;stroke-linecap:round;stroke-linejoin:round"></path><path d="M628.26,236.76l12.54-22.22s.66-8.34,5.33-11a35,35,0,0,1,10-4c1.67-.32,2.67,2.34.67,4s-2.66,2.33-3,3.33-.66,2.33-.66,2.33,6-3.33,7-3.33,9.33-7,9.33-4-2.67,10-7.67,14-12.64,4.67-12.64,4.67-2.31,15.32-5.31,26.84C638.78,247.55,632,245.85,628.26,236.76Z" style="fill:#263238;stroke:#263238;stroke-linecap:round;stroke-linejoin:round"></path><path d="M566.53,446c0-5.33,3.67-13,3.67-16.32,0-2.36-1-19-1.59-32.63h25.92c-.2.87-.42,1.75-.69,2.66-3.66,12.32-8.32,36.63-8.32,36.63a32.47,32.47,0,0,0,3,5.67c1.34,1.66,10.66.33,12.33,4.66a15.94,15.94,0,0,1,.33,9h-33.3A36.35,36.35,0,0,1,566.53,446Z" style="fill:#263238;stroke:#263238;stroke-linecap:round;stroke-linejoin:round"></path><path d="M477.29,434.66c1.66-1.67,5.32-2.67,9.32-1s17.32,2,17.32,2,3.44-38.14,3.44-41.14c0-.95.79-3.19,1.41-7.7l22.85,10.34c-6.36,18.6-13.48,39.34-14.38,41.49-1.67,4-2.67,14.66-6,15.66s-11-2.67-11-2.67l-2-3a46.88,46.88,0,0,1-5,.66c-1.33,0-14.65-6-17.65-8S475.62,436.32,477.29,434.66Z" style="fill:#263238;stroke:#263238;stroke-linecap:round;stroke-linejoin:round"></path></g><g id="freepik--character-3--inject-12"><path d="M457.27,274.46s8,37.15,7.52,62.07S461.5,376,461.5,376H434.7s-5.17-12.22-2.35-35.74S457.27,274.46,457.27,274.46Z" style="fill:#949494;stroke:#263238;stroke-linecap:round;stroke-linejoin:round"></path><path d="M405.91,250.23s-9.08,27.54-9.39,48.19,6.26,46,8.45,50.7.62,16.59,3.75,27.86,14.4,36.3,16,40.37,2.51,12.21,2.51,13.77-.32,7.51-.32,11.9-5.32,3.13-5.94,4.69-.94,6.57.31,7.51,20,0,20,0l.94-11,1.25,11h2.82s.31-10.33.62-15.65-1.87-10.33-3.13-11.26a12.7,12.7,0,0,1-2.5-3.13l-2.5-16.9-6.89-46.64s13.46-39.12,16.9-56.64,8.14-31.93,8.14-38.81-6.57-21.91-6.57-21.91L407.16,243Z" style="fill:#263238;stroke:#263238;stroke-linecap:round;stroke-linejoin:round"></path><path d="M454.42,257.74s12.83,28.48,5.32,53.51A178.38,178.38,0,0,1,441,353.51s8.14,14.39,5.63,31-5.94,36-5.94,36l.62,4.7s1.88,2.81,2.5,9.07-.31,21-.31,21h-3.75v-9.7l-3.45,10h-20s-.31-4.69.32-6.26,4.69-4.06,6.88-6.25,2.51-9.71,3.44-12.84,2.2-6.88,2.2-6.88-2.82-19.41-5.33-28.48-6.88-37.25-6.88-38.5,0-10.33.31-11.58,5.32-45.69,14.4-69.48" style="fill:#fff;stroke:#263238;stroke-linecap:round;stroke-linejoin:round"></path><path d="M443.46,455.22s.94-14.71.31-21-2.5-9.07-2.5-9.07l-.62-4.7s3.44-19.4,5.94-36-5.63-31-5.63-31,2.55-3.9,6-10.67c-11.67-15.58-22.35-13.36-28.13-10.2-1,7-1.58,11.71-1.68,12.1-.31,1.25-.31,10.33-.31,11.58s4.38,29.42,6.88,38.5,5.33,28.48,5.33,28.48-1.26,3.75-2.2,6.88-1.25,10.64-3.44,12.84-6.26,4.69-6.88,6.25-.32,6.26-.32,6.26h20l3.45-10v9.7Z" style="fill:#263238;stroke:#263238;stroke-linecap:round;stroke-linejoin:round"></path><path d="M447.48,247.32s2.62,5.24-10.46,27.8-16.36,46.77-17.67,54.62-4.25,24.53-2.61,28.46,2.29,15,2.29,15l.65,2.62H389.27s-5.56-28.46,0-66.07,16.64-59.56,16.64-59.56Z" style="fill:#949494;stroke:#263238;stroke-linecap:round;stroke-linejoin:round"></path><polyline points="395.98 320.07 389.71 347.04 397.24 335.75 398.49 368.35 404.13 338.88 413.54 358.32 410.4 321.95" style="fill:#fff;stroke:#263238;stroke-linecap:round;stroke-linejoin:round"></polyline><path d="M411,248a353.46,353.46,0,0,0-14.51,50.45c-6.18,29.18-3.67,46.73,6.36,45.48s11.29-23.83,18.18-44.52,18.81-50.78,18.81-50.78Z" style="fill:#fff;stroke:#263238;stroke-linecap:round;stroke-linejoin:round"></path><path d="M414.79,249.85s-13.79,52-13.79,69,5-3.13,13.17-23.83,15.67-44.51,15.67-44.51Z" style="fill:#fff;stroke:#263238;stroke-linecap:round;stroke-linejoin:round"></path><path d="M405.59,213.61s-9.07,15.91-9.07,24.41c0,16.59,14.71,16.27,33.8,16.27s26.91-12.51,29.1-19.09S465.06,218,461.3,213s-13.77-20.34-21.91-18.46-16.27,5.32-17.52,6.57-7.83,9.08-7.83,9.08Z" style="fill:#263238;stroke:#263238;stroke-linecap:round;stroke-linejoin:round"></path><path d="M446.9,196.66c-2.53-1.74-5.1-2.7-7.51-2.14-8,1.84-16,5.2-17.44,6.5.38,4,2.08,10.76,9,12.27C439,215.05,445,204.13,446.9,196.66Z" style="fill:#fff;stroke:#263238;stroke-linecap:round;stroke-linejoin:round"></path><path d="M419.36,204.22a164,164,0,0,1-18.46-4.7c-8.45-2.81-11-3.44-11-3.44s-.94,16.28,8.45,20.66A27.79,27.79,0,0,0,417.17,218Z" style="fill:#92E3A9;stroke:#263238;stroke-linecap:round;stroke-linejoin:round"></path><path d="M419.05,186.07a162.76,162.76,0,0,1-5,24.1c-3.44,11.26-6.88,15.33-6.88,15.33l14.71-.31s3.44-8.77,5.32-15,3.13-11.58,3.13-11.58S419.05,190.45,419.05,186.07Z" style="fill:#fff;stroke:#263238;stroke-linecap:round;stroke-linejoin:round"></path><path d="M415.92,172.92s.31,10.33,1.25,13.77,6.26,11.27,9.39,13.15,5.95,1.56,9.7-.63,6.26-7.82,8.14-11.27,2.82-14.08,2.82-14.08-12.83-7.2-19.41-7.2S415.92,172.92,415.92,172.92Z" style="fill:#fff;stroke:#263238;stroke-linecap:round;stroke-linejoin:round"></path><path d="M442.21,170.73s-2.5,20.34-6.57,34.11-8.77,21.91-8.77,21.91l21-1.25,4.7-18.78,17.52-2.19s-9.07-12.2-13.14-17.84-5.63-8.13-5.63-8.13Z" style="fill:#fff;stroke:#263238;stroke-linecap:round;stroke-linejoin:round"></path><path d="M424.37,177.3s-2.25-2.59-5.95.32" style="fill:none;stroke:#263238;stroke-linecap:round;stroke-linejoin:round;stroke-width:2px"></path><path d="M430.32,177s5-2.5,7.2.63" style="fill:none;stroke:#263238;stroke-linecap:round;stroke-linejoin:round;stroke-width:2px"></path><path d="M425.62,175.74a7.54,7.54,0,0,1,.63,3.13c0,1.88-2.82,5.94-2.82,5.94l4.7-.31" style="fill:none;stroke:#263238;stroke-linecap:round;stroke-linejoin:round"></path><path d="M425.62,188.57s7.91,2,10.64-3.76" style="fill:none;stroke:#263238;stroke-linecap:round;stroke-linejoin:round"></path><path d="M438.65,277c-3.42,1.74-6.14,2.94-6.14,2.94l-11.27-2.51s-8.76,3.45-9.7,4.7.94,4.38,2.82,4.69l1.87.32s3.45,4.38,4.7,4.69S433.45,289,433.45,289s3.37-1.26,8.21-3.1Z" style="fill:#fff;stroke:#263238;stroke-linecap:round;stroke-linejoin:round"></path><path d="M470.26,436.26,384.2,159a29.83,29.83,0,1,0-4.47,1.45l86,277.18a2.35,2.35,0,0,0,2.94,1.55h0A2.34,2.34,0,0,0,470.26,436.26ZM347.55,131.35a25.24,25.24,0,1,1,25.24,25.24A25.26,25.26,0,0,1,347.55,131.35Z" style="fill:#fff;stroke:#263238;stroke-linecap:round;stroke-linejoin:round"></path><circle cx="398.96" cy="124.17" r="11.41" transform="translate(29.05 318.47) rotate(-45)" style="fill:#92E3A9;stroke:#263238;stroke-linecap:round;stroke-linejoin:round"></circle><circle cx="349.95" cy="113.43" r="7.38" transform="translate(-16.72 83.71) rotate(-13.33)" style="fill:#92E3A9;stroke:#263238;stroke-linecap:round;stroke-linejoin:round"></circle><circle cx="360.02" cy="153.71" r="7.38" transform="translate(-25.63 86.54) rotate(-13.24)" style="fill:#92E3A9;stroke:#263238;stroke-linecap:round;stroke-linejoin:round"></circle><path d="M482.27,194.2s6,4.39,3.13,13.77a16.25,16.25,0,0,1-10.95,11.27l-5.64-10.64S479.14,198.9,482.27,194.2Z" style="fill:#263238;stroke:#263238;stroke-linecap:round;stroke-linejoin:round"></path><path d="M458.17,216.74a51.18,51.18,0,0,0,3.13,11.89c2.51,6.26,7.51,26,7.51,26s-13.46,10.32-18.46,15S432.51,280,432.51,280l-11.27-2.51s-8.76,3.45-9.7,4.7.94,4.38,2.82,4.69l1.87.32s3.45,4.38,4.7,4.69S433.45,289,433.45,289s35.05-13.14,41.62-16.58,8.45-4.7,9.08-8.14S482.58,239,482.58,233s-2.81-18.78-4.07-21.28a39.06,39.06,0,0,0-3.12-5Z" style="fill:#fff;stroke:#263238;stroke-linecap:round;stroke-linejoin:round"></path><path d="M482.59,233.29,465,240.51c.82,2.92,1.61,5.85,2.25,8.27l15.79-6.52C482.81,238.49,482.6,235.2,482.59,233.29Z" style="fill:#263238;stroke:#263238;stroke-linecap:round;stroke-linejoin:round"></path><path d="M482.27,194.2s-19.4,8.77-23.47,10.64-7.51.94-7.51,7.83,6.88,7.2,16.58,3.44S482.27,194.2,482.27,194.2Z" style="fill:#92E3A9;stroke:#263238;stroke-linecap:round;stroke-linejoin:round"></path><path d="M439.27,276.7c-3.71,1.92-6.76,3.26-6.76,3.26l-11.27-2.51s-8.76,3.45-9.7,4.7.94,4.38,2.82,4.69l1.87.32s3.45,4.38,4.7,4.69S433.45,289,433.45,289s3.86-1.45,9.25-3.5Z" style="fill:#92E3A9;stroke:#263238;stroke-linecap:round;stroke-linejoin:round"></path><polygon points="433.13 277.45 438.14 289.97 448.16 286.53 442.21 273.38 433.13 277.45" style="fill:#92E3A9;stroke:#263238;stroke-linecap:round;stroke-linejoin:round"></polygon><path d="M403.3,201.81s2.73-1.36,3.42-.68,2.56,4.44,2.56,6.32-2.9,1.54-3.93.35S403.3,201.81,403.3,201.81Z" style="fill:#92E3A9;stroke:#263238;stroke-linecap:round;stroke-linejoin:round"></path><path d="M403.2,200.67h0s-11.7,2.53-11.7,4.42-.31,16.12-.31,16.12-7.9,16.12-8.54,25.92,3.16,11.7,8.54,10.44,8.53-7,9.17-16.13.31-20.86.31-20.86,7.27-4.74,7.59-6.32S403.2,200.67,403.2,200.67Z" style="fill:#fff;stroke:#263238;stroke-linecap:round;stroke-linejoin:round"></path><path d="M392.85,219.13,388.46,221l-1.25,8.78s6.9,4.28,13.31,2.14c2.62-.87,1.09-9.64,1.09-9.64l-6.25-3.16Z" style="fill:#92E3A9;stroke:#263238;stroke-linecap:round;stroke-linejoin:round"></path><path d="M391.5,205.09c0,1.9-.31,16.12-.31,16.12s-.17.34-.44.93c1.26,2.18,4,3.88,10,2.11,0-2.24-.06-3.67-.06-3.67s7.27-4.74,7.59-6.32-5.06-13.59-5.06-13.59S391.5,203.2,391.5,205.09Z" style="fill:#92E3A9;stroke:#263238;stroke-linecap:round;stroke-linejoin:round"></path><path d="M430.32,172.89s3.08-3.82,8.44,1.72" style="fill:none;stroke:#263238;stroke-linecap:round;stroke-linejoin:round"></path><path d="M424.7,172.89s-4.93-1.19-7,2.57" style="fill:none;stroke:#263238;stroke-linecap:round;stroke-linejoin:round"></path><path d="M414.36,167.6s1.25-1.56-2.51-8.45-1.88-20.34,2.82-17.53,4.69,9.71,4.69,9.71-2.81-18.16,11.27-23.79,8.45,18.78,8.45,18.78,14.08-10,19.4-6.26-8.76,20.34-8.76,20.34,17.53-3.13,15.65,4.07-11.89,11.58-11.89,11.58-11-7.51-20.66-10.64S414.36,167.6,414.36,167.6Z" style="fill:#92E3A9;stroke:#263238;stroke-linecap:round;stroke-linejoin:round"></path><path d="M428.1,144.13a20.77,20.77,0,0,1,1.64-3.72" style="fill:none;stroke:#263238;stroke-linecap:round;stroke-linejoin:round"></path><path d="M416.3,155.87l6.34,8.37,3.55-4.31a50.3,50.3,0,0,1,1.12-13.05" style="fill:none;stroke:#263238;stroke-linecap:round;stroke-linejoin:round"></path><polyline points="444.02 156.8 434.05 164.49 446.47 172.6 455.09 168.04" style="fill:none;stroke:#263238;stroke-linecap:round;stroke-linejoin:round"></polyline><line x1="446.21" y1="155.11" x2="445.48" y2="155.68" style="fill:none;stroke:#263238;stroke-linecap:round;stroke-linejoin:round"></line><path d="M415.29,174.17a21.77,21.77,0,0,1,15-4.69c9.07.62,22.22,9.7,22.22,9.7l.94-3.13s-3.76-2.82-7.83-6.26-5.94-3.75-5.94-3.75-11.27-13.15-15.34-10.33-10,11.89-10,11.89Z" style="fill:#263238;stroke:#263238;stroke-linecap:round;stroke-linejoin:round"></path></g><g id="freepik--character-2--inject-12"><path d="M269.52,411.75l.71,25.37s-9.52,9.51-12,10.22-9.16,4.58-7.4,6.69,35.58,0,35.58,0h4.94s2.46-7.4,1.41-11.27-4.94-9.16-4.59-14.09,2.47-18.33,2.47-18.33Z" style="fill:#263238;stroke:#263238;stroke-linecap:round;stroke-linejoin:round"></path><path d="M250.26,275.57l-11.76,7.62s-6-5.4-9.21-4.76-6.36,6.67-5.41,7.31-2.22,5.72.32,9.21,3.5,4.77,8.26,3.5,13-5.41,13-5.41l7.31-2.22S253.75,276.2,250.26,275.57Z" style="fill:#949494;stroke:#263238;stroke-linecap:round;stroke-linejoin:round"></path><path d="M238.18,295.9s-3.4,4.43-8.49,4.11-6.44-3.79-9.3-5.69-.64-7.95,0-9.85,6,.63,6,.63,10.8,3.18,11.43,4.77-1,3.49-2.54,4.45" style="fill:#949494;stroke:#263238;stroke-linecap:round;stroke-linejoin:round"></path><path d="M226.11,280.33s-4.77,2.86-3.81,6,11.75,3.5,12.07,1.59-4.13-3.49-4.13-3.49" style="fill:#949494;stroke:#263238;stroke-linecap:round;stroke-linejoin:round"></path><path d="M234.37,288s4.13-1.91,7.63,0" style="fill:#949494;stroke:#263238;stroke-linecap:round;stroke-linejoin:round"></path><path d="M251.65,290.42s-2.47,32.23-.49,46.09S262,360.75,262,360.75s-1.26,14.28.23,21.7,3.24,16.81,9.17,17.8,22.27,1,23.75-2-3.46-36.61-3.46-38.59-3-65.3-3-65.3Z" style="fill:#92E3A9;stroke:#263238;stroke-linecap:round;stroke-linejoin:round"></path><path d="M271.94,298.34s-.64,23.23,5.44,41.06c5.07,14.87,7.85,20.43,7.85,20.43s.87,17.56,1.74,21.92c1.39,7,6.74,19,6.74,19h22.76s5.44-17.81,3-28.2-5.93-20.29-5.93-22.27,8.41-48.48,2.47-60.85S276.89,289.43,271.94,298.34Z" style="fill:#92E3A9;stroke:#263238;stroke-linecap:round;stroke-linejoin:round"></path><path d="M293.48,398s-15.85-4.58-29.24,0l3.17,17.62h25Z" style="fill:#949494;stroke:#263238;stroke-linecap:round;stroke-linejoin:round"></path><path d="M293.13,408.58s2.46,23.61,2.46,26.08-9.16,9.16-10.92,11.62-6.69,5.29-5.28,8.11,35.93,0,35.93,0a91.1,91.1,0,0,0,.71-10.57c0-5.29-.71-13-.71-13l.36-18S302.29,405.06,293.13,408.58Z" style="fill:#263238;stroke:#263238;stroke-linecap:round;stroke-linejoin:round"></path><path d="M288.9,396.6l2.11,19h29.25V395.55S300.88,391.67,288.9,396.6Z" style="fill:#949494;stroke:#263238;stroke-linecap:round;stroke-linejoin:round"></path><path d="M272.89,134s-11.91.66-14.56,12.9,1.65,34.42,4,35.74,10.59-1,10.59-1-1.65,6-5.62,9.6-18.54,9.92-22.18,26.47-5,37.07-3.31,43,7.62,5,7.62,5l.33,7.28s-3.64,10.92-2,16.54,11.58,16.88,20.19,20.19,8.65-5.65,21.16-11c9.23-4,20.53-5.55,25.17-4.88s6.62-8.28,7.28-14.23-3.64-10.26-3.64-10.26L315.58,261l14.23-2.64s4-27.8,4-43.36-7.28-21.51-15.22-24.15-13.57-4-13.57-4-8.93-6.95-9.6-8.6,0-15.22.67-21.51,2-17.54-4.64-21.51S272.89,134,272.89,134Z" style="fill:#92E3A9;stroke:#263238;stroke-linecap:round;stroke-linejoin:round"></path><path d="M260.06,159.46s-2.39,3.58-1.19,5.73a69.82,69.82,0,0,1,3.1,8.13" style="fill:none;stroke:#263238;stroke-linecap:round;stroke-linejoin:round"></path><path d="M314.26,293.79c4.63.66,6.62-8.28,7.28-14.23a13.2,13.2,0,0,0-2.7-9.13l-69.21.47.1,2s-3.64,10.92-2,16.54,11.58,16.88,20.19,20.19,8.65-5.65,21.16-11C298.32,294.71,309.62,293.12,314.26,293.79Z" style="fill:#92E3A9;stroke:#263238;stroke-linecap:round;stroke-linejoin:round"></path><polygon points="309.04 220.17 296.18 206.31 304.59 222.64 309.04 220.17" style="fill:#263238"></polygon><path d="M272.89,181.6l8.85-1.92,4.23-.85,5.26-5.17s-5.44,9.4-7.42,13.36-14.35,2.47-14.35,2.47l3.43-7.89" style="fill:#263238;stroke:#263238;stroke-miterlimit:10"></path><ellipse cx="272.56" cy="153.14" rx="6.29" ry="5.29" style="fill:#fff;stroke:#263238;stroke-linecap:round;stroke-linejoin:round"></ellipse><path d="M269.5,150.83a5.48,5.48,0,0,1,7-.83" style="fill:none;stroke:#263238;stroke-linecap:round;stroke-linejoin:round"></path><path d="M260.32,154.13c0-2.28-1.1-4.12-2.48-4.27a59.19,59.19,0,0,0-.31,8.55l.14,0C259.13,158.43,260.32,156.51,260.32,154.13Z" style="fill:#fff;stroke:#263238;stroke-linecap:round;stroke-linejoin:round"></path><ellipse cx="291.42" cy="156.61" rx="4.3" ry="5.79" style="fill:#fff;stroke:#263238;stroke-linecap:round;stroke-linejoin:round"></ellipse><polygon points="249.73 272.94 302.13 270.7 300.88 260.66 248.45 264.74 249.73 272.94" style="fill:#263238;stroke:#263238;stroke-linecap:round;stroke-linejoin:round"></polygon><path d="M313.93,235.87c-34.76-7.14-60.27-2.64-71.85.45-1.19,10.84-1.35,20.57-.3,24.37,1.66,6,7.62,5,7.62,5L315.58,261Z" style="fill:#fff;stroke:#263238;stroke-linecap:round;stroke-linejoin:round"></path><ellipse cx="264.81" cy="214.4" rx="15.39" ry="12.75" transform="translate(-59.09 320.13) rotate(-57.07)" style="fill:#263238;stroke:#263238;stroke-linecap:round;stroke-linejoin:round"></ellipse><ellipse cx="264.81" cy="214.4" rx="11.6" ry="9.61" transform="translate(-59.09 320.13) rotate(-57.07)" style="fill:#fff;stroke:#263238;stroke-linecap:round;stroke-linejoin:round"></ellipse><path d="M268.78,208.26c2.81,1.82,3.3,6,1.11,9.43s-6.25,4.66-9.05,2.84-3.31-6-1.11-9.42S266,206.45,268.78,208.26Z" style="fill:#263238;stroke:#263238;stroke-linecap:round;stroke-linejoin:round"></path><path d="M266.71,211.47a3.55,3.55,0,0,1-3.8,5.85c-1.34-.86-1.57-2.88-.53-4.49S265.37,210.6,266.71,211.47Z" style="fill:#92E3A9;stroke:#263238;stroke-linecap:round;stroke-linejoin:round"></path><circle cx="323.25" cy="266.48" r="50.94" transform="translate(-75.8 138.97) rotate(-21.78)" style="fill:#263238;stroke:#263238;stroke-linecap:round;stroke-linejoin:round"></circle><circle cx="323.25" cy="266.48" r="39.48" transform="translate(7.87 542.23) rotate(-80.67)" style="fill:#fff;stroke:#263238;stroke-linecap:round;stroke-linejoin:round"></circle><circle cx="323.25" cy="266.48" r="25.98" transform="translate(-9.61 520.85) rotate(-76.89)" style="fill:#263238;stroke:#263238;stroke-linecap:round;stroke-linejoin:round"></circle><circle cx="323.25" cy="266.48" r="13.71" style="fill:#92E3A9;stroke:#263238;stroke-linecap:round;stroke-linejoin:round"></circle><path d="M275,153.43c0,1.07-.53,1.93-1.18,1.93s-1.19-.86-1.19-1.93.53-1.92,1.19-1.92S275,152.37,275,153.43Z" style="fill:#263238"></path><path d="M260.47,154.28c0,.84-.42,1.53-.94,1.53s-.94-.69-.94-1.53.42-1.53.94-1.53S260.47,153.43,260.47,154.28Z" style="fill:#263238"></path></g><g id="freepik--character-1--inject-12"><path d="M120.49,219.86s4.77-5.41,11.77-3.5,8.91,7,8.91,7l15.27,4.45a70.74,70.74,0,0,0,13.05,1.28,96,96,0,0,1,15.27,1.59l-2.86,10.18-52.5,2.55-12.1-21.32Z" style="fill:#949494;stroke:#263238;stroke-linecap:round;stroke-linejoin:round"></path><path d="M124.3,292.72s3.82,1,3.82,5.73a73.49,73.49,0,0,0,.64,9.23s18.14,17.18,28.64,35,8.91,25.46,8.59,29-9.55,53.13-9.55,57.27a21.17,21.17,0,0,0,.64,6s2.23,6.36,7,8.59,7.32,1.91,7.64,5.41a24.16,24.16,0,0,1,0,5.41H137.67s-.64-9.55-.64-14S142.44,428,142.44,428s-1.91-36-1.91-42,2.87-18.45,2.87-18.45l-38.19-31.18s10.5,36.27,8.59,47.09-22,45.18-22,45.18l-1.27,10.5s5.72,6.37,8,8,3.5,3.82,2.23,5.72a14.14,14.14,0,0,0-1.59,2.87H80.39s-9.54-6.05-10.18-7,0-8.59,2.23-12.41,7.32-10.5,7.32-10.5,3.5-32.46,6-37.55,5.41-9.86,5.41-9.86S75,358.91,69.26,340.77s-5.41-30.23.63-38.5,8.6-12.09,8.6-12.09L109,291.45Z" style="fill:#92E3A9;stroke:#263238;stroke-linecap:round;stroke-linejoin:round"></path><path d="M119.9,319.22c-3.33,4.53-8.37,10-14,11.3" style="fill:none;stroke:#263238;stroke-linecap:round;stroke-linejoin:round"></path><path d="M124,312.74s-.76,1.44-2.1,3.51" style="fill:none;stroke:#263238;stroke-linecap:round;stroke-linejoin:round"></path><path d="M86.66,308.59a19.84,19.84,0,0,0-4.76-1.26" style="fill:none;stroke:#263238;stroke-linecap:round;stroke-linejoin:round"></path><path d="M105.87,334.39s-4.47-16.84-15.81-24" style="fill:none;stroke:#263238;stroke-linecap:round;stroke-linejoin:round"></path><path d="M92.34,306.17s-4.64-7-14.69-3.48" style="fill:none;stroke:#263238;stroke-linecap:round;stroke-linejoin:round"></path><path d="M126.53,283.82l-.32,10.5s-3.81,2.22-19.72,2.22a66.09,66.09,0,0,1-28-6.36l1.27-8.59Z" style="fill:#263238;stroke:#263238;stroke-linecap:round;stroke-linejoin:round"></path><polygon points="107.89 299.09 119.87 298.5 119.87 287.64 107.89 288.23 107.89 299.09" style="fill:#fff;stroke:#263238;stroke-linecap:round;stroke-linejoin:round"></polygon><path d="M113.17,213.81l-1.27,7.64,8.59-1.59A36.43,36.43,0,0,1,132.26,237c3.5,11.14,4.77,20,.32,24.82s-3.82,3.5-3.82,3.5.64,17.82-1.91,20.05-23.55,3.18-34.68.63-13-3.82-13-7.32,1.59-10.81,1.59-10.81S70.85,250.09,69.89,238s2.23-19.41,8.91-22,14,1.91,14,1.91L96,204.27Z" style="fill:#92E3A9;stroke:#263238;stroke-linecap:round;stroke-linejoin:round"></path><path d="M113.17,213.81l-1.27,7.64s1.59,16.23,0,16.86S92.8,218,92.8,218L96,204.27Z" style="fill:#949494;stroke:#263238;stroke-linecap:round;stroke-linejoin:round"></path><path d="M78.8,216a13.33,13.33,0,0,1,6.28-.68,40.48,40.48,0,0,1,9.31,10.23c5.41,8.27,1,27-18.77,30.86l-.38.06c-2.45-5.79-4.89-12.79-5.35-18.51C68.94,225.9,72.12,218.59,78.8,216Z" style="fill:#949494;stroke:#263238;stroke-linecap:round;stroke-linejoin:round"></path><rect x="206.08" y="217" width="6.05" height="10.82" transform="translate(418.21 444.81) rotate(180)" style="fill:#878787;stroke:#263238;stroke-linecap:round;stroke-linejoin:round"></rect><rect x="204.17" y="227.81" width="5.09" height="16.86" transform="translate(413.43 472.49) rotate(180)" style="fill:#878787;stroke:#263238;stroke-linecap:round;stroke-linejoin:round"></rect><polygon points="206.08 217 169.17 217 169.17 232.59 179.99 232.59 179.99 244.36 204.17 244.68 204.17 227.81 206.08 227.81 206.08 217" style="fill:#263238;stroke:#263238;stroke-linecap:round;stroke-linejoin:round"></polygon><path d="M183.49,230.68h7.32a4.13,4.13,0,0,1,4.13,4.13h0a4.13,4.13,0,0,1-4.13,4.14h-8.59Z" style="fill:#949494;stroke:#263238;stroke-linecap:round;stroke-linejoin:round"></path><path d="M221.67,223H210.56A2.54,2.54,0,0,1,208,220.5h0a2.55,2.55,0,0,1,2.54-2.55h11.11Z" style="fill:#878787;stroke:#263238;stroke-linecap:round;stroke-linejoin:round"></path><path d="M224.06,224.63H216.9a4.3,4.3,0,0,1-4.3-4.29h0a4.3,4.3,0,0,1,4.3-4.3h7.16a4.29,4.29,0,0,1,4.29,4.3h0A4.29,4.29,0,0,1,224.06,224.63Z" style="fill:#263238;stroke:#263238;stroke-linecap:round;stroke-linejoin:round"></path><rect x="180.94" y="210.63" width="7" height="6.36" transform="translate(368.89 427.63) rotate(180)" style="fill:#263238;stroke:#263238;stroke-linecap:round;stroke-linejoin:round"></rect><rect x="176.46" y="207.13" width="17.21" height="3.82" transform="translate(370.13 418.08) rotate(180)" style="fill:#263238;stroke:#263238;stroke-linecap:round;stroke-linejoin:round"></rect><path d="M169.14,212.54h4a3.66,3.66,0,0,0,3.66-3.66h0a3.66,3.66,0,0,0-3.66-3.66h-4a3.66,3.66,0,0,0-3.66,3.66h0A3.66,3.66,0,0,0,169.14,212.54Z" style="fill:#263238;stroke:#263238;stroke-linecap:round;stroke-linejoin:round"></path><path d="M194.44,212.54h4.8a3.66,3.66,0,0,0,3.66-3.66h0a3.66,3.66,0,0,0-3.66-3.66h-4.8a3.66,3.66,0,0,0-3.66,3.66h0A3.66,3.66,0,0,0,194.44,212.54Z" style="fill:#263238;stroke:#263238;stroke-linecap:round;stroke-linejoin:round"></path><path d="M70.74,225.81S72,212,86.41,214.63C95.91,216.37,103,227.5,103,227.5l14,5.72a86.4,86.4,0,0,1,15.59.32c8.91,1,26.09,2.86,26.09,2.86l-1.59,12.41s-21.64,2.55-36.91,2.55-29.28-3.18-33.73-3.82a82.62,82.62,0,0,1-9.86-2.23" style="fill:#949494;stroke:#263238;stroke-linecap:round;stroke-linejoin:round"></path><path d="M103,227.47l0,0,9.74,4C108.84,233,98.3,238.28,101.5,250c-5.6-.76-10.22-1.64-13.14-2.15-.29-4-.35-11,2.53-14.32C93.5,230.53,99.15,228.53,103,227.47Z" style="fill:#263238;stroke:#263238;stroke-linecap:round;stroke-linejoin:round"></path><path d="M135.12,250.72c-4.42-7.08-1.46-13.54.75-16.82,9.28,1,22.8,2.5,22.8,2.5l-1.59,12.41s-10.43,1.23-21.91,2Z" style="fill:#263238;stroke:#263238;stroke-linecap:round;stroke-linejoin:round"></path><path d="M158.67,236.4l10.82-7.31,18.13,2.22s2.55,3.19.32,5.41-5.72,1.91-5.72,1.91,1.59,9.23-2.23,10.82-22.91-.64-22.91-.64Z" style="fill:#949494;stroke:#263238;stroke-linecap:round;stroke-linejoin:round"></path><path d="M106.77,341.94c.42,1.56.89,3.39,1.4,5.39-13.82-2.46-25.1,3.88-31.82,9.23-1.42-2.53-2.78-5.17-4-7.84C83.76,337.61,100.42,340.35,106.77,341.94Z" style="fill:#263238;stroke:#263238;stroke-linecap:round;stroke-linejoin:round"></path><path d="M66.87,343.51a7.79,7.79,0,0,1,3.39-9.34c2.16-1.27,4.54-2.48,6-2.63,3.18-.31,8.27,2.23,9.54,8.28s6.69,28,3.82,29.91-9.54-.32-12.09-4.78C75.6,361.57,69.63,351.22,66.87,343.51Z" style="fill:#263238;stroke:#263238;stroke-linecap:round;stroke-linejoin:round"></path><path d="M148.21,329.34c1.64,2.11,3.26,4.3,4.81,6.53l0,.18c-.83-.14-19.88-3.27-26,18.07l-5.48-4.47C127.44,333,140.52,329.73,148.21,329.34Z" style="fill:#263238"></path><path d="M143.4,367.5s4.13-9.55,10.5-11.14,12.09-.63,12.72,7.32,1.28,11.77-8,13.05S142.76,371,142.76,371Z" style="fill:#263238"></path><path d="M113.93,377.84s-1.2,4.45-7.76,4.93c-9.89.73-15-4.45-15-4.45l-1.91,4.13s3.82,9.23,10.5,11.78a10.3,10.3,0,0,0,12.41-3.5C113.49,388.82,114.88,384.2,113.93,377.84Z" style="fill:#263238"></path><path d="M142,418.46c8,1.85,13.48.62,16-.3-.92,5.57-1.54,9.68-1.54,10.75a21.17,21.17,0,0,0,.64,6s2.23,6.36,7,8.59,7.32,1.91,7.64,5.41a24.16,24.16,0,0,1,0,5.41H137.67s-.64-9.55-.64-14S142.44,428,142.44,428,142.23,424,142,418.46Z" style="fill:#263238"></path><path d="M79.76,425.73s.22-2.05.59-5.2c3.31,5.84,9.26,5.61,13.58,4.43-1.28,2.26-2.08,3.63-2.08,3.63l-1.27,10.5s5.72,6.37,8,8,3.5,3.82,2.23,5.72a14.14,14.14,0,0,0-1.59,2.87H80.39s-9.54-6.05-10.18-7,0-8.59,2.23-12.41S79.76,425.73,79.76,425.73Z" style="fill:#263238"></path><path d="M114.12,260.59s-6.36,5.72-14.63,3.18" style="fill:none;stroke:#263238;stroke-linecap:round;stroke-linejoin:round"></path><path d="M135.44,172.45s14.32-12.41,17.18-9.87-2.86,7.64-2.86,7.64,17.5,0,20.05,5.73-13.05,3.5-13.05,3.5,11.46,9.54,8,13.68S146.9,189,146.9,189s4.77,10.19-.64,10.82-14.32-8.27-16.23-12.72S124.94,173.72,135.44,172.45Z" style="fill:#263238;stroke:#263238;stroke-linecap:round;stroke-linejoin:round"></path><path d="M130.35,165.77s12.09-1.59,9.55,3.18-8.6,7.63-8.6,7.63,5.73,2.55,4.46,6.37-5.73,4.14-5.73,4.14,7.32,2.54,4.77,8.27-7,7.63-11.45,10.82-29-.64-29-.64-6.36,0-9.54-.32-2.55-3.5-2.55-3.5-6,3.5-8,1.27-.32-8-.32-8-4.45-1.27-4.14-5.09a18.29,18.29,0,0,1,1.91-6.68s-8.91-4.46-4.77-9.55a26.59,26.59,0,0,1,10.18-7.32s-7.63-4.45-4.13-7.63,11.45-1.28,11.45-1.28-.32-8.27,6-8.91,13,4.14,13,4.14,5.09-7.95,11.46-6.36-1.28,7-1.28,7,15-7,19.1-1.91-3.82,10.5-3.82,10.5S137.67,158.45,130.35,165.77Z" style="fill:#263238;stroke:#263238;stroke-linecap:round;stroke-linejoin:round"></path><path d="M73.08,178.18s-12.1-14.64-18.46-14-.95,8.59-.95,8.59-12.41,6.36-12.41,9.54,5.41,4.78,5.41,4.78-8,17.18-3.5,19.72S56.53,203,56.53,203s.95,4.14,4.77,3.5,6.37-15.27,6.37-15.27,1,6.68,4.77,3.18S76.89,179.13,73.08,178.18Z" style="fill:#263238;stroke:#263238;stroke-linecap:round;stroke-linejoin:round"></path><path d="M125.58,196.63s-5.41,18.77-9.23,19.73-16.86-8-19.41-9.87S96,197,96,197l25.45,1.27Z" style="fill:#949494;stroke:#263238;stroke-linecap:round;stroke-linejoin:round"></path><path d="M125.58,177.86v18.77L117,203.31,96,197l-1-7.32s3.5-2.54,3.5-3.5a11.34,11.34,0,0,1,.32-2.23s2.54,1.28,3.5-2.22,1.59-6.37,1.59-6.37,5.73,3.82,9.55,3.82,6.36-3.82,6.36-3.82S124.62,179.45,125.58,177.86Z" style="fill:#92E3A9;stroke:#263238;stroke-linecap:round;stroke-linejoin:round"></path><path d="M108.4,192.81c0,1.41.64,2.55,1.43,2.55s1.43-1.14,1.43-2.55-.64-2.54-1.43-2.54S108.4,191.41,108.4,192.81Z" style="fill:#263238"></path><ellipse cx="121.6" cy="191.86" rx="1.43" ry="2.55" style="fill:#263238"></ellipse><path d="M113.8,188.68a7.76,7.76,0,0,0-7.63-1.91" style="fill:none;stroke:#263238;stroke-linecap:round;stroke-linejoin:round"></path><path d="M125.26,186.45s-2.55-.64-4.77,2.23" style="fill:none;stroke:#263238;stroke-linecap:round;stroke-linejoin:round"></path><line x1="116.99" y1="203.31" x2="116.67" y2="192.18" style="fill:none;stroke:#263238;stroke-linecap:round;stroke-linejoin:round"></line><path d="M117,207.13s-7,1-11.14-3.82" style="fill:none;stroke:#263238;stroke-linecap:round;stroke-linejoin:round"></path><path d="M198,244.51s-6.46,6.46-12.48,6.89-9-4.74-9.9-6-.43-2.58,1.72-2.58a2.52,2.52,0,0,1,2.61,1.57s.4-1.57,3-1.57a13.36,13.36,0,0,1,5.17,1.29Z" style="fill:#949494;stroke:#263238;stroke-linecap:round;stroke-linejoin:round"></path><path d="M180,244.36s3.84,5.32,6.43,5.32" style="fill:none;stroke:#263238;stroke-linecap:round;stroke-linejoin:round"></path><path d="M188.14,244.08a9.58,9.58,0,0,0,2.58,3" style="fill:none;stroke:#263238;stroke-linecap:round;stroke-linejoin:round"></path></g><g id="freepik--Plant--inject-12"><ellipse cx="670.9" cy="315.84" rx="9.19" ry="24.11" style="fill:#92E3A9;stroke:#263238;stroke-miterlimit:10"></ellipse><path d="M699.47,301c-2.88,9-8.4,15.36-12.34,14.11s-4.79-9.59-1.92-18.64,8.39-15.36,12.33-14.11S702.34,291.93,699.47,301Z" style="fill:#92E3A9;stroke:#263238;stroke-miterlimit:10"></path><path d="M632,355.51c-9.36-1.58-16.38-6.17-15.69-10.24s8.83-6.09,18.19-4.51,16.38,6.18,15.69,10.25S641.37,357.1,632,355.51Z" style="fill:#92E3A9;stroke:#263238;stroke-miterlimit:10"></path><path d="M708.12,333.22c-7.82,7.75-17,11.11-20.62,7.51s-.14-12.81,7.67-20.57,17.05-11.11,20.63-7.5S715.94,325.47,708.12,333.22Z" style="fill:#92E3A9;stroke:#263238;stroke-miterlimit:10"></path><path d="M654.27,312c7.55,11,9.81,22.52,5,25.82s-14.79-2.93-22.34-13.89-9.81-22.53-5-25.82S646.71,301,654.27,312Z" style="fill:#92E3A9;stroke:#263238;stroke-miterlimit:10"></path><line x1="671.55" y1="338.75" x2="672.26" y2="412.11" style="fill:none;stroke:#263238;stroke-linecap:round;stroke-miterlimit:10"></line><line x1="670.69" y1="306.88" x2="671.55" y2="338.75" style="fill:none;stroke:#263238;stroke-linecap:round;stroke-miterlimit:10"></line><line x1="670.75" y1="301.67" x2="670.69" y2="304.12" style="fill:none;stroke:#263238;stroke-linecap:round;stroke-miterlimit:10"></line><path d="M659.26,336.21A92.44,92.44,0,0,1,668.34,371v45.37" style="fill:none;stroke:#263238;stroke-linecap:round;stroke-miterlimit:10"></path><path d="M643.47,312.05a108.86,108.86,0,0,1,15.79,24.16" style="fill:none;stroke:#263238;stroke-linecap:round;stroke-miterlimit:10"></path><path d="M638.5,306.8s1,.87,2.52,2.53" style="fill:none;stroke:#263238;stroke-linecap:round;stroke-miterlimit:10"></path><path d="M688.07,339.62a108.75,108.75,0,0,0-14.91,29.57" style="fill:none;stroke:#263238;stroke-linecap:round;stroke-miterlimit:10"></path><path d="M698.64,327.46a87.2,87.2,0,0,0-10.57,12.16" style="fill:none;stroke:#263238;stroke-linecap:round;stroke-miterlimit:10"></path><path d="M709.94,318.86a48.45,48.45,0,0,0-8.06,5.7" style="fill:none;stroke:#263238;stroke-linecap:round;stroke-miterlimit:10"></path><path d="M687.68,312.84c-5.09,16-11.93,39.71-15.12,60.27" style="fill:none;stroke:#263238;stroke-linecap:round;stroke-miterlimit:10"></path><path d="M690.78,303.34c-.9,2.7-2,5.91-3.1,9.5" style="fill:none;stroke:#263238;stroke-linecap:round;stroke-miterlimit:10"></path><path d="M694,294.14s-.89,2.45-2.32,6.66" style="fill:none;stroke:#263238;stroke-linecap:round;stroke-miterlimit:10"></path><path d="M649.73,348.79c6.36,2.41,15.07,9.14,18.09,18" style="fill:none;stroke:#263238;stroke-linecap:round;stroke-miterlimit:10"></path><path d="M638,346.4a40,40,0,0,1,11.75,2.39" style="fill:none;stroke:#263238;stroke-linecap:round;stroke-miterlimit:10"></path><path d="M630.36,346.59a29.81,29.81,0,0,1,3-.24" style="fill:none;stroke:#263238;stroke-linecap:round;stroke-miterlimit:10"></path><path d="M650.37,390.77c-8.6,4-17,4.24-18.74.49s3.81-10,12.41-14,17-4.24,18.73-.5S659,386.76,650.37,390.77Z" style="fill:#92E3A9;stroke:#263238;stroke-miterlimit:10"></path><path d="M650.09,379.88a40.3,40.3,0,0,1,11-4.72,5.53,5.53,0,0,1,5.92.12c1.16.77.78,6.59.78,6.59v30.24" style="fill:none;stroke:#263238;stroke-linecap:round;stroke-miterlimit:10"></path><path d="M643.94,384.36s.84-.77,2.33-1.89" style="fill:none;stroke:#263238;stroke-linecap:round;stroke-miterlimit:10"></path><path d="M712.09,355.51c9.36-1.58,16.38-6.17,15.69-10.24s-8.83-6.09-18.19-4.51S693.21,346.94,693.9,351,702.73,357.1,712.09,355.51Z" style="fill:#92E3A9;stroke:#263238;stroke-miterlimit:10"></path><path d="M694.57,348.71a29.6,29.6,0,0,0-3.33,1.47A23.31,23.31,0,0,0,678.77,371v40" style="fill:none;stroke:#263238;stroke-linecap:round;stroke-miterlimit:10"></path><path d="M707.11,346.35a40.81,40.81,0,0,0-12.54,2.36" style="fill:none;stroke:#263238;stroke-linecap:round;stroke-miterlimit:10"></path><path d="M713.74,346.59s-.75-.11-2-.19" style="fill:none;stroke:#263238;stroke-linecap:round;stroke-miterlimit:10"></path><ellipse cx="706.43" cy="376.41" rx="7.48" ry="17.18" transform="translate(27.54 800.49) rotate(-60.04)" style="fill:#92E3A9;stroke:#263238;stroke-miterlimit:10"></ellipse><path d="M704.69,372.66a40.87,40.87,0,0,0-11.17-6.17s-10.2-1.68-12.52,4.91" style="fill:none;stroke:#263238;stroke-linecap:round;stroke-miterlimit:10"></path><path d="M709.65,377.06s-.5-.55-1.44-1.43" style="fill:none;stroke:#263238;stroke-linecap:round;stroke-miterlimit:10"></path><path d="M682.55,371.79s-12-2.33-12,5.81,8.53,14.73,12,24,10.08,9.69,13.57.39S694.57,375.66,682.55,371.79Z" style="fill:#92E3A9;stroke:#263238;stroke-miterlimit:10"></path><path d="M674.41,372.17S684.87,376.44,688,390" style="fill:#92E3A9;stroke:#263238;stroke-miterlimit:10"></path><line x1="675.18" y1="390.01" x2="675.18" y2="412.11" style="fill:none;stroke:#263238;stroke-linecap:round;stroke-miterlimit:10"></line><path d="M694.44,455.14a94.58,94.58,0,0,0,4.34-28.29A85,85,0,0,0,697,409.56h-49a85,85,0,0,0-1.74,17.29,94.58,94.58,0,0,0,4.34,28.29Z" style="fill:#263238"></path><path d="M646.82,417.64q-.21,2-.33,4.05h52.14q-.12-2.06-.33-4.05Z" style="fill:#7a7a7a"></path><path d="M698.07,438.31q.25-2,.42-4.05H646.63q.17,2,.42,4.05Z" style="fill:#7a7a7a"></path><path d="M652.67,427.08a2.11,2.11,0,1,1-2.11-2A2.08,2.08,0,0,1,652.67,427.08Z" style="fill:#8c8c8c"></path><path d="M663.22,427.08a2.11,2.11,0,1,1-2.11-2A2.08,2.08,0,0,1,663.22,427.08Z" style="fill:#8c8c8c"></path><path d="M673.77,427.08a2.11,2.11,0,1,1-2.11-2A2.08,2.08,0,0,1,673.77,427.08Z" style="fill:#8c8c8c"></path><path d="M684.32,427.08a2.11,2.11,0,1,1-2.11-2A2.08,2.08,0,0,1,684.32,427.08Z" style="fill:#8c8c8c"></path><path d="M694.87,427.08a2.11,2.11,0,1,1-2.11-2A2.08,2.08,0,0,1,694.87,427.08Z" style="fill:#8c8c8c"></path></g><g id="freepik--Floor--inject-12"><line x1="631" y1="455.64" x2="709.93" y2="455.64" style="fill:none;stroke:#263238;stroke-linecap:round;stroke-linejoin:round"></line><line x1="151.93" y1="455.64" x2="622" y2="455.64" style="fill:none;stroke:#263238;stroke-linecap:round;stroke-linejoin:round"></line><line x1="27.58" y1="455.64" x2="143.22" y2="455.64" style="fill:none;stroke:#263238;stroke-linecap:round;stroke-linejoin:round"></line></g></svg>